<svg xmlns="http://www.w3.org/2000/svg" width="13" height="10.18" viewBox="0 0 13 10.18">
  <metadata><?xpacket begin="﻿" id="W5M0MpCehiHzreSzNTczkc9d"?>
<x:xmpmeta xmlns:x="adobe:ns:meta/" x:xmptk="Adobe XMP Core 5.6-c138 79.159824, 2016/09/14-01:09:01        ">
   <rdf:RDF xmlns:rdf="http://www.w3.org/1999/02/22-rdf-syntax-ns#">
      <rdf:Description rdf:about=""/>
   </rdf:RDF>
</x:xmpmeta>
                                                                                                    
                                                                                                    
                                                                                                    
                                                                                                    
                                                                                                    
                                                                                                    
                                                                                                    
                                                                                                    
                                                                                                    
                                                                                                    
                                                                                                    
                                                                                                    
                                                                                                    
                                                                                                    
                                                                                                    
                                                                                                    
                                                                                                    
                                                                                                    
                                                                                                    
                                                                                                    
                           
<?xpacket end="w"?></metadata>
<defs>
    <style>
      .cls-1 {
        fill: #f48b5f;
        fill-rule: evenodd;
      }
    </style>
  </defs>
  <path id="Forma_1" data-name="Forma 1" class="cls-1" d="M56.248,6873.54c0.164,0.12.66,0.46,1.487,1.03s1.46,1.02,1.9,1.33c0.048,0.03.151,0.11,0.308,0.22s0.288,0.21.392,0.28,0.23,0.14.377,0.23a2.486,2.486,0,0,0,.417.2,1.245,1.245,0,0,0,.363.06h0.015a1.246,1.246,0,0,0,.363-0.06,2.482,2.482,0,0,0,.417-0.2c0.147-.09.273-0.16,0.377-0.23s0.234-.17.392-0.28,0.26-.19.308-0.22c0.445-.31,1.577-1.1,3.4-2.36a3.464,3.464,0,0,0,.885-0.89,1.916,1.916,0,0,0,.356-1.1,1.116,1.116,0,0,0-.345-0.82,1.15,1.15,0,0,0-.816-0.34H56.161a1.042,1.042,0,0,0-.86.38,1.467,1.467,0,0,0-.3.94,1.668,1.668,0,0,0,.4.99A3.47,3.47,0,0,0,56.248,6873.54Zm11.027,0.78c-1.586,1.07-2.79,1.91-3.613,2.5q-0.413.3-.671,0.48a3.839,3.839,0,0,1-.686.34,2.068,2.068,0,0,1-.8.18H61.493a2.068,2.068,0,0,1-.8-0.18,3.839,3.839,0,0,1-.686-0.34q-0.257-.18-0.671-0.48-0.98-.72-3.605-2.5a4.38,4.38,0,0,1-.733-0.63v5.76a1.121,1.121,0,0,0,.341.82,1.146,1.146,0,0,0,.82.34H66.839a1.146,1.146,0,0,0,.82-0.34,1.121,1.121,0,0,0,.341-0.82v-5.76A4.135,4.135,0,0,1,67.274,6874.32Z" transform="translate(-55 -6870.41)"/>
</svg>
