<svg xmlns="http://www.w3.org/2000/svg" width="11" height="11" viewBox="0 0 11 11">
  <metadata><?xpacket begin="﻿" id="W5M0MpCehiHzreSzNTczkc9d"?>
<x:xmpmeta xmlns:x="adobe:ns:meta/" x:xmptk="Adobe XMP Core 5.6-c138 79.159824, 2016/09/14-01:09:01        ">
   <rdf:RDF xmlns:rdf="http://www.w3.org/1999/02/22-rdf-syntax-ns#">
      <rdf:Description rdf:about=""/>
   </rdf:RDF>
</x:xmpmeta>
                                                                                                    
                                                                                                    
                                                                                                    
                                                                                                    
                                                                                                    
                                                                                                    
                                                                                                    
                                                                                                    
                                                                                                    
                                                                                                    
                                                                                                    
                                                                                                    
                                                                                                    
                                                                                                    
                                                                                                    
                                                                                                    
                                                                                                    
                                                                                                    
                                                                                                    
                                                                                                    
                           
<?xpacket end="w"?></metadata>
<defs>
    <style>
      .cls-1 {
        fill: #00e05f;
        fill-rule: evenodd;
      }
    </style>
  </defs>
  <path id="Forma_1" data-name="Forma 1" class="cls-1" d="M66.752,6692.71l-1.7-1.71a0.874,0.874,0,0,0-1.248.03l-0.856.85c-0.054-.03-0.11-0.06-0.169-0.09a8.515,8.515,0,0,1-2.058-1.49,8.781,8.781,0,0,1-1.491-2.07c-0.032-.06-0.062-0.12-0.092-0.17l0.574-.57L60,6687.2a0.886,0.886,0,0,0,.023-1.25l-1.7-1.7a0.883,0.883,0,0,0-1.248.02l-0.479.48,0.013,0.01a2.977,2.977,0,0,0-.394.7,3.025,3.025,0,0,0-.175.71c-0.224,1.87.625,3.57,2.931,5.89,3.187,3.19,5.755,2.95,5.866,2.94a2.989,2.989,0,0,0,.708-0.18,2.789,2.789,0,0,0,.693-0.39l0.011,0.01,0.485-.48A0.887,0.887,0,0,0,66.752,6692.71Z" transform="translate(-56 -6684)"/>
</svg>
