<svg xmlns="http://www.w3.org/2000/svg" width="15" height="13.06" viewBox="0 0 15 13.06">
  <metadata><?xpacket begin="﻿" id="W5M0MpCehiHzreSzNTczkc9d"?>
<x:xmpmeta xmlns:x="adobe:ns:meta/" x:xmptk="Adobe XMP Core 5.6-c138 79.159824, 2016/09/14-01:09:01        ">
   <rdf:RDF xmlns:rdf="http://www.w3.org/1999/02/22-rdf-syntax-ns#">
      <rdf:Description rdf:about=""/>
   </rdf:RDF>
</x:xmpmeta>
                                                                                                    
                                                                                                    
                                                                                                    
                                                                                                    
                                                                                                    
                                                                                                    
                                                                                                    
                                                                                                    
                                                                                                    
                                                                                                    
                                                                                                    
                                                                                                    
                                                                                                    
                                                                                                    
                                                                                                    
                                                                                                    
                                                                                                    
                                                                                                    
                                                                                                    
                                                                                                    
                           
<?xpacket end="w"?></metadata>
<defs>
    <style>
      .cls-1 {
        fill: #629cdd;
        fill-rule: evenodd;
      }
    </style>
  </defs>
  <path class="cls-1" d="M53.265,6775.22l3.456,1.29,1.338,4.3a0.4,0.4,0,0,0,.646.19l1.927-1.57a0.586,0.586,0,0,1,.7-0.02l3.475,2.53a0.41,0.41,0,0,0,.638-0.25l2.546-12.24a0.409,0.409,0,0,0-.545-0.46l-14.185,5.47A0.406,0.406,0,0,0,53.265,6775.22Zm4.579,0.6,6.755-4.15a0.115,0.115,0,0,1,.142.18l-5.575,5.18a1.159,1.159,0,0,0-.358.69l-0.19,1.41a0.174,0.174,0,0,1-.341.02l-0.73-2.56A0.688,0.688,0,0,1,57.844,6775.82Z" transform="translate(-53 -6768.97)"/>
</svg>
