<svg xmlns="http://www.w3.org/2000/svg" style="display:none"><defs><style>.cls-1{fill:#f48b5f;fill-rule:evenodd}</style><style>.cls-1{fill:#00e05f;fill-rule:evenodd}</style><style>.cls-1{fill:#629cdd;fill-rule:evenodd}</style></defs><symbol id="icon-email" viewBox="0 0 13 10.18"><path id="Forma_1" data-name="Forma 1" class="cls-1" d="M56.248 6873.54c.164.12.66.46 1.487 1.03s1.46 1.02 1.9 1.33c.048.03.151.11.308.22s.288.21.392.28.23.14.377.23a2.486 2.486 0 0 0 .417.2 1.245 1.245 0 0 0 .363.06h.015a1.246 1.246 0 0 0 .363-.06 2.482 2.482 0 0 0 .417-.2c.147-.09.273-.16.377-.23s.234-.17.392-.28.26-.19.308-.22c.445-.31 1.577-1.1 3.4-2.36a3.464 3.464 0 0 0 .885-.89 1.916 1.916 0 0 0 .356-1.1 1.116 1.116 0 0 0-.345-.82 1.15 1.15 0 0 0-.816-.34H56.161a1.042 1.042 0 0 0-.86.38 1.467 1.467 0 0 0-.3.94 1.668 1.668 0 0 0 .4.99 3.47 3.47 0 0 0 .847.84zm11.027.78c-1.586 1.07-2.79 1.91-3.613 2.5q-.413.3-.671.48a3.839 3.839 0 0 1-.686.34 2.068 2.068 0 0 1-.8.18h-.012a2.068 2.068 0 0 1-.8-.18 3.839 3.839 0 0 1-.686-.34q-.257-.18-.671-.48-.98-.72-3.605-2.5a4.38 4.38 0 0 1-.733-.63v5.76a1.121 1.121 0 0 0 .341.82 1.146 1.146 0 0 0 .82.34h10.68a1.146 1.146 0 0 0 .82-.34 1.121 1.121 0 0 0 .341-.82v-5.76a4.135 4.135 0 0 1-.726.63z" transform="translate(-55 -6870.41)"/></symbol><symbol id="icon-phone" viewBox="0 0 11 11"><path id="Forma_1" data-name="Forma 1" class="cls-1" d="M66.752 6692.71l-1.7-1.71a.874.874 0 0 0-1.248.03l-.856.85c-.054-.03-.11-.06-.169-.09a8.515 8.515 0 0 1-2.058-1.49 8.781 8.781 0 0 1-1.491-2.07c-.032-.06-.062-.12-.092-.17l.574-.57.288-.29a.886.886 0 0 0 .023-1.25l-1.7-1.7a.883.883 0 0 0-1.248.02l-.479.48.013.01a2.977 2.977 0 0 0-.394.7 3.025 3.025 0 0 0-.175.71c-.224 1.87.625 3.57 2.931 5.89 3.187 3.19 5.755 2.95 5.866 2.94a2.989 2.989 0 0 0 .708-.18 2.789 2.789 0 0 0 .693-.39l.011.01.485-.48a.887.887 0 0 0 .018-1.25z" transform="translate(-56 -6684)"/></symbol><symbol id="icon-telegram" viewBox="0 0 15 13.06"><path class="cls-1" d="M.265 6.25l3.456 1.29 1.338 4.3a.4.4 0 0 0 .646.19l1.927-1.57a.586.586 0 0 1 .7-.02l3.475 2.53a.41.41 0 0 0 .638-.25L14.991.48a.409.409 0 0 0-.545-.46L.261 5.49a.406.406 0 0 0 .004.76zm4.579.6l6.755-4.15a.115.115 0 0 1 .142.18L6.166 8.06a1.159 1.159 0 0 0-.358.69l-.19 1.41a.174.174 0 0 1-.341.02l-.73-2.56a.688.688 0 0 1 .297-.77z"/></symbol></svg>